<svg class="icon" viewBox="0 0 1024 1024" xmlns="http://www.w3.org/2000/svg" width="200" height="200"><path d="M470.76 96h218.8v218.8h-218.8z" fill="#90FC95"/><path d="M689.6 322.8H470.8a8 8 0 0 1-8-8V96a8 8 0 0 1 8-8h218.8a8 8 0 0 1 8 8v218.8a8 8 0 0 1-8 8zm-210.8-16h202.8V104H478.8z" fill="#2FB1EA"/><path d="M333.84 216.68h196.28v196.28H333.84z" fill="#FFE76E"/><path d="M333.84 282.8h196.28v130.16H333.84z" fill="#FFC444"/><path d="M530.12 420.96H333.84a8 8 0 0 1-8-8V216.68a8 8 0 0 1 8-8h196.28a8 8 0 0 1 8 8v196.28a8 8 0 0 1-8 8zm-188.28-16h180.28V224.68H341.84z" fill="#2FB1EA"/><path d="m601.832 132.776 154.716 154.716-215.584 215.58L386.248 348.36z" fill="#A4ECFF"/><path d="m540.96 503.08 215.6-215.6-4.68-4.68H451.8l-65.56 65.56 154.72 154.72z" fill="#6DD0FC"/><path d="M540.96 511.08a8 8 0 0 1-5.64-2.36L380.6 354a8 8 0 0 1 0-11.32L596 127.12a8 8 0 0 1 11.32 0l154.72 154.72a8 8 0 0 1 0 11.32l-215.6 215.6a8 8 0 0 1-5.48 2.32zm-143.4-162.72 143.4 143.4 204.28-204.28L601.84 144z" fill="#2FB1EA"/><path d="M164.56 176h196.28v196.28H164.56z" fill="#F88"/><path d="M164.56 282.8h196.28v89.48H164.56z" fill="#F97171"/><path d="M360.84 380.28H164.56a8 8 0 0 1-8-8V176a8 8 0 0 1 8-8h196.28a8 8 0 0 1 8 8v196.28a8 8 0 0 1-8 8zm-188.28-16h180.28V184H172.56z" fill="#2FB1EA"/><path d="M756.56 709.2H274.68a48 48 0 0 1-44.56-30.2L110.88 380.64a48 48 0 0 1 44.56-65.84h601.12z" fill="#CBECF9"/><path d="M710.12 666H274.68a48 48 0 0 1-44.56-30L110.88 380.64a48 48 0 0 1 44.56-65.84h554.68z" fill="#FFF"/><path d="M756.56 717.2H274.68a55.72 55.72 0 0 1-52-35.2L103.44 383.6a56 56 0 0 1 52-76.8h601.12a8 8 0 0 1 8 8v394.4a8 8 0 0 1-8 8zM155.44 322.8a40 40 0 0 0-37.16 54.84L237.52 676a40 40 0 0 0 37.16 25.16h473.88V322.8z" fill="#2FB1EA"/><path d="M836.56 216a40 40 0 1 0 80 0 40 40 0 1 0-80 0z" fill="#90FC95"/><path d="M876.56 264a48 48 0 1 1 48-48 48 48 0 0 1-48 48zm0-80a32 32 0 1 0 32 32 32 32 0 0 0-32-32z" fill="#2FB1EA"/><path d="M756.56 322.8a8 8 0 0 1-8-8v-43.08a8 8 0 0 1 4.28-7.08l82.08-43.08a8 8 0 0 1 7.44 14.16l-77.8 40.84v38.24a8 8 0 0 1-8 8z" fill="#2FB1EA"/><path d="M164.56 848a80 80 0 1 0 160 0 80 80 0 1 0-160 0z" fill="#6DD0FC"/><path d="M184 828.56a60.56 60.56 0 1 0 121.12 0 60.56 60.56 0 1 0-121.12 0z" fill="#A4ECFF"/><path d="M244.56 936a88 88 0 1 1 88-88 88 88 0 0 1-88 88zm0-160a72 72 0 1 0 72 72 72 72 0 0 0-72-72z" fill="#2FB1EA"/><path d="M847.16 856h-522.6a8 8 0 0 1 0-16h522.6a61.4 61.4 0 1 0 0-122.8h-90.6a8 8 0 0 1 0-16h90.6a77.4 77.4 0 1 1 0 154.8z" fill="#2FB1EA"/><path d="M596.56 848a80 80 0 1 0 160 0 80 80 0 1 0-160 0z" fill="#6DD0FC"/><path d="M616 828.56a60.56 60.56 0 1 0 121.12 0 60.56 60.56 0 1 0-121.12 0z" fill="#A4ECFF"/><path d="M676.56 936a88 88 0 1 1 88-88 88 88 0 0 1-88 88zm0-160a72 72 0 1 0 72 72 72 72 0 0 0-72-72z" fill="#2FB1EA"/><path d="M104 184a20 20 0 1 0 40 0 20 20 0 1 0-40 0zm28 500a16 16 0 1 0 32 0 16 16 0 1 0-32 0zm648 204a12 12 0 1 0 24 0 12 12 0 1 0-24 0zM344 96a8 8 0 1 0 16 0 8 8 0 1 0-16 0zM176 740a4 4 0 1 0 8 0 4 4 0 1 0-8 0z" fill="#D4FFD4"/><path d="M24 336a20 20 0 1 0 40 0 20 20 0 1 0-40 0zM480 40a16 16 0 1 0 32 0 16 16 0 1 0-32 0zm192 948a12 12 0 1 0 24 0 12 12 0 1 0-24 0zm216-348a8 8 0 1 0 16 0 8 8 0 1 0-16 0zM272 944a4 4 0 1 0 8 0 4 4 0 1 0-8 0z" fill="#FFBDBD"/><path d="M528 916a20 20 0 1 0 40 0 20 20 0 1 0-40 0zm268-424a16 16 0 1 0 32 0 16 16 0 1 0-32 0zm-60-356a12 12 0 1 0 24 0 12 12 0 1 0-24 0zm128 424a8 8 0 1 0 16 0 8 8 0 1 0-16 0zM168 916a4 4 0 1 0 8 0 4 4 0 1 0-8 0z" fill="#BBF1FF"/><path d="M960 568a20 20 0 1 0 40 0 20 20 0 1 0-40 0zm-80-204a16 16 0 1 0 32 0 16 16 0 1 0-32 0zM392 764a12 12 0 1 0 24 0 12 12 0 1 0-24 0zM96 568a8 8 0 1 0 16 0 8 8 0 1 0-16 0zm108-456a4 4 0 1 0 8 0 4 4 0 1 0-8 0z" fill="#FFF4C5"/></svg>